<?xml version="1.0" encoding="utf-8"?>
<svg viewBox="13.114 3.013 244.119 79.797" xmlns="http://www.w3.org/2000/svg">
  <defs>
    <linearGradient gradientUnits="userSpaceOnUse" x1="118.149" y1="65.499" x2="118.149" y2="83.488" id="gradient-0" gradientTransform="matrix(0.907096, -4.338263, 12.500694, 2.613802, -907.989296, 361.406849)">
      <stop offset="0" style="stop-color: rgb(182, 118, 255);"/>
      <stop offset="1" style="stop-color: rgb(31, 210, 255);"/>
    </linearGradient>
  </defs>
  <path d="M 64.19699980926514 30.886801739501955 L 56.017399809265136 62.97600173950195 L 43.43339980926514 62.97600173950195 L 38.971799809265136 43.52800173950195 L 34.33859980926513 62.97600173950195 L 21.81179980926514 62.97600173950195 L 13.689399809265137 30.886801739501955 L 24.843399809265136 30.886801739501955 L 28.446999809265137 52.16520173950195 L 33.19459980926514 30.886801739501955 L 45.206599809265136 30.886801739501955 L 50.12579980926514 52.222401739501954 L 53.67219980926514 30.886801739501955 Z M 65.55917084960937 46.90280173950195 Q 65.55917084960937 41.926401739501955 67.36097084960937 38.20840173950195 Q 69.16277084960937 34.49040173950195 72.28017084960938 32.48840173950195 Q 75.39757084960938 30.48640173950195 79.22997084960937 30.48640173950195 Q 82.54757084960937 30.48640173950195 84.94997084960937 31.802001739501954 Q 87.35237084960937 33.11760173950195 88.66797084960938 35.34840173950195 L 88.66797084960938 30.886801739501955 L 99.87917084960938 30.886801739501955 L 99.87917084960938 62.97600173950195 L 88.66797084960938 62.97600173950195 L 88.66797084960938 58.514401739501956 Q 87.35237084960937 60.74520173950195 84.92137084960937 62.060801739501954 Q 82.49037084960938 63.37640173950195 79.22997084960937 63.37640173950195 Q 75.39757084960938 63.37640173950195 72.28017084960938 61.374401739501955 Q 69.16277084960937 59.37240173950195 67.36097084960937 55.62580173950195 Q 65.55917084960937 51.87920173950195 65.55917084960937 46.90280173950195 Z M 88.66797084960938 46.90280173950195 Q 88.66797084960938 43.814001739501954 86.98057084960938 42.04080173950195 Q 85.29317084960937 40.267601739501956 82.83357084960937 40.267601739501956 Q 80.31677084960938 40.267601739501956 78.65797084960937 42.012201739501954 Q 76.99917084960937 43.75680173950195 76.99917084960937 46.90280173950195 Q 76.99917084960937 49.99160173950195 78.65797084960937 51.79340173950195 Q 80.31677084960938 53.59520173950195 82.83357084960937 53.59520173950195 Q 85.29317084960937 53.59520173950195 86.98057084960938 51.82200173950196 Q 88.66797084960938 50.048801739501954 88.66797084960938 46.90280173950195 Z M 125.21492935791017 53.423601739501954 L 125.21492935791017 62.97600173950195 L 120.35292935791016 62.97600173950195 Q 108.05492935791015 62.97600173950195 108.05492935791015 50.792401739501955 L 108.05492935791015 40.210401739501954 L 104.10812935791016 40.210401739501954 L 104.10812935791016 30.886801739501955 L 108.05492935791015 30.886801739501955 L 108.05492935791015 23.107601739501952 L 119.32332935791015 23.107601739501952 L 119.32332935791015 30.886801739501955 L 125.15772935791016 30.886801739501955 L 125.15772935791016 40.210401739501954 L 119.32332935791015 40.210401739501954 L 119.32332935791015 50.96400173950195 Q 119.32332935791015 52.279601739501956 119.92392935791015 52.85160173950195 Q 120.52452935791015 53.423601739501954 121.95452935791016 53.423601739501954 Z M 128.53040803222657 46.90280173950195 Q 128.53040803222657 41.926401739501955 130.58960803222655 38.20840173950195 Q 132.64880803222655 34.49040173950195 136.33820803222656 32.48840173950195 Q 140.02760803222657 30.48640173950195 144.77520803222657 30.48640173950195 Q 150.89560803222656 30.48640173950195 155.07120803222656 33.83260173950195 Q 159.24680803222657 37.17880173950195 160.44800803222657 43.18480173950195 L 148.55040803222656 43.18480173950195 Q 147.52080803222657 40.03880173950195 144.54640803222657 40.03880173950195 Q 142.43000803222657 40.03880173950195 141.20020803222656 41.783401739501954 Q 139.97040803222657 43.52800173950195 139.97040803222657 46.90280173950195 Q 139.97040803222657 50.277601739501954 141.20020803222656 52.05080173950195 Q 142.43000803222657 53.82400173950195 144.54640803222657 53.82400173950195 Q 147.57800803222656 53.82400173950195 148.55040803222656 50.67800173950195 L 160.44800803222657 50.67800173950195 Q 159.24680803222657 56.62680173950196 155.07120803222656 60.00160173950195 Q 150.89560803222656 63.37640173950195 144.77520803222657 63.37640173950195 Q 140.02760803222657 63.37640173950195 136.33820803222656 61.374401739501955 Q 132.64880803222655 59.37240173950195 130.58960803222655 55.65440173950195 Q 128.53040803222657 51.93640173950195 128.53040803222657 46.90280173950195 Z M 186.1721063232422 30.600801739501954 Q 191.66330632324218 30.600801739501954 194.8951063232422 34.29020173950195 Q 198.1269063232422 37.97960173950195 198.1269063232422 44.27160173950195 L 198.1269063232422 62.97600173950195 L 186.91570632324218 62.97600173950195 L 186.91570632324218 45.75880173950195 Q 186.91570632324218 43.01320173950195 185.4857063232422 41.44020173950195 Q 184.0557063232422 39.86720173950195 181.6533063232422 39.86720173950195 Q 179.1365063232422 39.86720173950195 177.7065063232422 41.44020173950195 Q 176.2765063232422 43.01320173950195 176.2765063232422 45.75880173950195 L 176.2765063232422 62.97600173950195 L 165.0653063232422 62.97600173950195 L 165.0653063232422 20.64800173950195 L 176.2765063232422 20.64800173950195 L 176.2765063232422 35.462801739501955 Q 177.7637063232422 33.28920173950195 180.3091063232422 31.945001739501954 Q 182.8545063232422 30.600801739501954 186.1721063232422 30.600801739501954 Z M 202.4708224609375 46.90280173950195 Q 202.4708224609375 41.926401739501955 204.2726224609375 38.20840173950195 Q 206.0744224609375 34.49040173950195 209.2204224609375 32.48840173950195 Q 212.36642246093749 30.48640173950195 216.1988224609375 30.48640173950195 Q 219.28762246093748 30.48640173950195 221.7186224609375 31.773401739501953 Q 224.1496224609375 33.060401739501955 225.5224224609375 35.29120173950196 L 225.5224224609375 20.64800173950195 L 236.7908224609375 20.64800173950195 L 236.7908224609375 62.97600173950195 L 225.5224224609375 62.97600173950195 L 225.5224224609375 58.514401739501956 Q 224.2068224609375 60.74520173950195 221.8044224609375 62.060801739501954 Q 219.4020224609375 63.37640173950195 216.1416224609375 63.37640173950195 Q 212.3092224609375 63.37640173950195 209.1918224609375 61.374401739501955 Q 206.0744224609375 59.37240173950195 204.2726224609375 55.62580173950195 Q 202.4708224609375 51.87920173950195 202.4708224609375 46.90280173950195 Z M 225.57962246093751 46.90280173950195 Q 225.57962246093751 43.814001739501954 223.8922224609375 42.04080173950195 Q 222.2048224609375 40.267601739501956 219.7452224609375 40.267601739501956 Q 217.2284224609375 40.267601739501956 215.5696224609375 42.012201739501954 Q 213.9108224609375 43.75680173950195 213.9108224609375 46.90280173950195 Q 213.9108224609375 49.99160173950195 215.5696224609375 51.79340173950195 Q 217.2284224609375 53.59520173950195 219.7452224609375 53.59520173950195 Q 222.2048224609375 53.59520173950195 223.8922224609375 51.82200173950196 Q 225.57962246093751 50.048801739501954 225.57962246093751 46.90280173950195 Z M 248.62738859863282 63.43360173950195 Q 245.65298859863282 63.43360173950195 243.8511885986328 61.80340173950195 Q 242.04938859863282 60.173201739501955 242.04938859863282 57.65640173950195 Q 242.04938859863282 55.139601739501956 243.8511885986328 53.480801739501956 Q 245.65298859863282 51.82200173950196 248.62738859863282 51.82200173950196 Q 251.5445885986328 51.82200173950196 253.3463885986328 53.480801739501956 Q 255.1481885986328 55.139601739501956 255.1481885986328 57.65640173950195 Q 255.1481885986328 60.116001739501954 253.3463885986328 61.77480173950195 Q 251.5445885986328 63.43360173950195 248.62738859863282 63.43360173950195 Z" transform="matrix(1, 0, 0, 1, 0, 0)" style="fill: url(#gradient-0); white-space: pre;"/>
</svg>